<mxfile host="app.diagrams.net" modified="2023-06-08T14:45:04.610Z" agent="Mozilla/5.0 (Windows NT 10.0; Win64; x64) AppleWebKit/537.36 (KHTML, like Gecko) Chrome/114.0.0.0 Safari/537.36" etag="09sBvYBkRRdvLL30AZZC" version="21.3.7" type="device">
  <diagram name="Page-1" id="8x29HzSiTlGw1b5j0dAZ">
    <mxGraphModel dx="1290" dy="577" grid="1" gridSize="10" guides="1" tooltips="1" connect="1" arrows="1" fold="1" page="1" pageScale="1" pageWidth="850" pageHeight="1100" math="0" shadow="0">
      <root>
        <mxCell id="0" />
        <mxCell id="1" parent="0" />
        <mxCell id="T4wt5HelPMQf2K_JUC1o-5" style="edgeStyle=orthogonalEdgeStyle;rounded=0;orthogonalLoop=1;jettySize=auto;html=1;exitX=0;exitY=1;exitDx=0;exitDy=0;entryX=0.5;entryY=1;entryDx=0;entryDy=0;" parent="1" source="T4wt5HelPMQf2K_JUC1o-1" target="T4wt5HelPMQf2K_JUC1o-2" edge="1">
          <mxGeometry relative="1" as="geometry">
            <Array as="points">
              <mxPoint x="399" y="390" />
              <mxPoint x="140" y="390" />
            </Array>
          </mxGeometry>
        </mxCell>
        <mxCell id="T4wt5HelPMQf2K_JUC1o-10" style="edgeStyle=orthogonalEdgeStyle;rounded=0;orthogonalLoop=1;jettySize=auto;html=1;exitX=1;exitY=0;exitDx=0;exitDy=0;entryX=0.5;entryY=1;entryDx=0;entryDy=0;" parent="1" source="T4wt5HelPMQf2K_JUC1o-1" target="T4wt5HelPMQf2K_JUC1o-7" edge="1">
          <mxGeometry relative="1" as="geometry" />
        </mxCell>
        <mxCell id="T4wt5HelPMQf2K_JUC1o-1" value="0&lt;br&gt;&lt;br&gt;Doctor-Patient appointment System" style="ellipse;whiteSpace=wrap;html=1;aspect=fixed;" parent="1" vertex="1">
          <mxGeometry x="380" y="240" width="130" height="130" as="geometry" />
        </mxCell>
        <mxCell id="T4wt5HelPMQf2K_JUC1o-3" style="edgeStyle=orthogonalEdgeStyle;rounded=0;orthogonalLoop=1;jettySize=auto;html=1;" parent="1" source="T4wt5HelPMQf2K_JUC1o-2" target="T4wt5HelPMQf2K_JUC1o-1" edge="1">
          <mxGeometry relative="1" as="geometry" />
        </mxCell>
        <mxCell id="T4wt5HelPMQf2K_JUC1o-2" value="Doctor" style="rounded=0;whiteSpace=wrap;html=1;" parent="1" vertex="1">
          <mxGeometry x="80" y="275" width="120" height="60" as="geometry" />
        </mxCell>
        <mxCell id="T4wt5HelPMQf2K_JUC1o-4" value="user_name,password, &lt;br&gt;visiting location details ..." style="text;html=1;align=center;verticalAlign=middle;resizable=0;points=[];autosize=1;strokeColor=none;fillColor=none;" parent="1" vertex="1">
          <mxGeometry x="210" y="270" width="160" height="40" as="geometry" />
        </mxCell>
        <mxCell id="T4wt5HelPMQf2K_JUC1o-6" value="profile_details, appointmnet_details,notificarion..." style="text;html=1;align=center;verticalAlign=middle;resizable=0;points=[];autosize=1;strokeColor=none;fillColor=none;" parent="1" vertex="1">
          <mxGeometry x="135" y="390" width="280" height="30" as="geometry" />
        </mxCell>
        <mxCell id="T4wt5HelPMQf2K_JUC1o-8" style="edgeStyle=orthogonalEdgeStyle;rounded=0;orthogonalLoop=1;jettySize=auto;html=1;entryX=0.5;entryY=0;entryDx=0;entryDy=0;" parent="1" source="T4wt5HelPMQf2K_JUC1o-7" target="T4wt5HelPMQf2K_JUC1o-1" edge="1">
          <mxGeometry relative="1" as="geometry" />
        </mxCell>
        <mxCell id="T4wt5HelPMQf2K_JUC1o-7" value="Patient" style="rounded=0;whiteSpace=wrap;html=1;" parent="1" vertex="1">
          <mxGeometry x="640" y="110" width="120" height="60" as="geometry" />
        </mxCell>
        <mxCell id="T4wt5HelPMQf2K_JUC1o-9" value="user_name, password, email,&lt;br&gt;medical records ..." style="text;html=1;align=center;verticalAlign=middle;resizable=0;points=[];autosize=1;strokeColor=none;fillColor=none;" parent="1" vertex="1">
          <mxGeometry x="442" y="105" width="180" height="40" as="geometry" />
        </mxCell>
        <mxCell id="T4wt5HelPMQf2K_JUC1o-11" value="profile_details,notification,appointment_satus..." style="text;html=1;align=center;verticalAlign=middle;resizable=0;points=[];autosize=1;strokeColor=none;fillColor=none;" parent="1" vertex="1">
          <mxGeometry x="500" y="260" width="270" height="30" as="geometry" />
        </mxCell>
        <mxCell id="T4wt5HelPMQf2K_JUC1o-13" style="edgeStyle=orthogonalEdgeStyle;rounded=0;orthogonalLoop=1;jettySize=auto;html=1;entryX=1;entryY=1;entryDx=0;entryDy=0;" parent="1" source="T4wt5HelPMQf2K_JUC1o-12" target="T4wt5HelPMQf2K_JUC1o-1" edge="1">
          <mxGeometry relative="1" as="geometry" />
        </mxCell>
        <mxCell id="T4wt5HelPMQf2K_JUC1o-15" style="edgeStyle=orthogonalEdgeStyle;rounded=0;orthogonalLoop=1;jettySize=auto;html=1;exitX=1.025;exitY=0.592;exitDx=0;exitDy=0;exitPerimeter=0;entryX=1;entryY=0;entryDx=0;entryDy=0;" parent="1" source="T4wt5HelPMQf2K_JUC1o-1" target="T4wt5HelPMQf2K_JUC1o-12" edge="1">
          <mxGeometry relative="1" as="geometry">
            <mxPoint x="670" y="430" as="targetPoint" />
            <Array as="points">
              <mxPoint x="513" y="320" />
              <mxPoint x="740" y="320" />
            </Array>
          </mxGeometry>
        </mxCell>
        <mxCell id="T4wt5HelPMQf2K_JUC1o-12" value="admin" style="rounded=0;whiteSpace=wrap;html=1;" parent="1" vertex="1">
          <mxGeometry x="575" y="470" width="165" height="60" as="geometry" />
        </mxCell>
        <mxCell id="T4wt5HelPMQf2K_JUC1o-14" value="username, password, &lt;br&gt;email, doctor_details ..." style="text;html=1;align=center;verticalAlign=middle;resizable=0;points=[];autosize=1;strokeColor=none;fillColor=none;rotation=90;" parent="1" vertex="1">
          <mxGeometry x="400" y="420" width="150" height="40" as="geometry" />
        </mxCell>
        <mxCell id="T4wt5HelPMQf2K_JUC1o-16" value="appointment_details, doctor_details ..." style="text;html=1;align=center;verticalAlign=middle;resizable=0;points=[];autosize=1;strokeColor=none;fillColor=none;rotation=0;" parent="1" vertex="1">
          <mxGeometry x="510" y="330" width="230" height="30" as="geometry" />
        </mxCell>
      </root>
    </mxGraphModel>
  </diagram>
</mxfile>
